<?xml version="1.0" encoding="utf-8"?>
<svg preserveAspectRatio="xMinYMid meet" height="1em" viewBox="-24 -24 371 80" xmlns="http://www.w3.org/2000/svg" xmlns:bx="https://boxy-svg.com">
  <defs>
    <linearGradient id="gradient-1" bx:pinned="true"/>
  </defs>
  <rect style="fill: rgb(235, 115, 24); stroke: rgb(186, 218, 85); stroke-width: 0px;" transform="matrix(0.999991, 0.00432, 0, 1.000009, -34.836807, -25.282709)" x="18.837" y="9.201" width="355.184" height="63.999" rx="7.983" ry="7.983"/>
  <g transform="matrix(0.065848, 0, 0, 0.065848, -5.491034, -12.303201)" bx:origin="0.384797 0.5">
    <path d="M 234 323 C 239 317 240 283 236 265 C 233 249 232 249 226 255 C 212 269 188 269 174 255 C 159 237 162 214 180 200 C 183 197 185 195 185 194 C 184 190 163 186 151 187 C 109 191 93.4 227 84.8 264 C 81.8 281 83.8 317 88.8 323 L 234 323 Z" fill="#454546"/>
    <path d="M 565 324 C 569 319 570 290 569 274 C 567 260 563 250 561 250 C 560 250 558 252 555 255 C 538 272 508 268 497 246 C 490 230 493 215 505 203 C 509 199 512 195 512 194 C 512 194 508 192 504 191 C 453 174 399 211 389 271 C 386 286 389 314 392 324 Z" fill="#454546"/>
    <path d="M 372 647 C 424 641 470 619 510 585 C 538 560 556 529 561 498 C 565 478 562 441 556 428 L 133 427 C 131 483 172 545 207 584 C 238 618 279 638 323 647 C 334 649 361 649 372 647 Z" fill="#454546"/>
    <path d="M 504 590 C 504 590 458 630 399 643 C 333 658 285 636 285 636 C 285 636 299 560 378 541 C 454 523 504 590 504 590 Z" fill="#a5a5a5"/>
  </g>
  <path d="M 688.004 478.053 L 684.814 478.053 L 681.514 469.623 L 670.884 469.623 L 667.624 478.053 L 664.504 478.053 L 674.984 451.433 L 677.584 451.433 L 688.004 478.053 Z M 671.974 466.843 L 680.554 466.843 L 677.474 458.633 C 677.074 457.593 676.661 456.316 676.234 454.803 C 675.967 455.963 675.587 457.24 675.094 458.633 L 671.974 466.843 ZM 721.886 451.543 L 714.796 478.053 L 711.746 478.053 L 706.396 460.303 C 706.143 459.516 705.86 458.523 705.546 457.323 C 705.233 456.13 705.07 455.41 705.056 455.163 C 704.79 456.763 704.366 458.51 703.786 460.403 L 698.596 478.053 L 695.546 478.053 L 688.496 451.543 L 691.756 451.543 L 695.946 467.913 C 696.526 470.213 696.95 472.293 697.216 474.153 C 697.543 471.94 698.026 469.776 698.666 467.663 L 703.416 451.543 L 706.686 451.543 L 711.676 467.803 C 712.256 469.676 712.746 471.793 713.146 474.153 C 713.373 472.44 713.806 470.35 714.446 467.883 L 718.616 451.543 L 721.886 451.543 ZM 740.82 475.293 L 740.82 478.053 L 726.04 478.053 L 726.04 451.543 L 740.82 451.543 L 740.82 454.273 L 729.12 454.273 L 729.12 462.823 L 740.11 462.823 L 740.11 465.543 L 729.12 465.543 L 729.12 475.293 L 740.82 475.293 ZM 761.655 471.003 C 761.655 473.336 760.808 475.153 759.115 476.453 C 757.422 477.76 755.125 478.413 752.225 478.413 C 749.078 478.413 746.658 478.01 744.965 477.203 L 744.965 474.223 C 746.052 474.683 747.238 475.046 748.525 475.313 C 749.805 475.58 751.075 475.713 752.335 475.713 C 754.388 475.713 755.935 475.323 756.975 474.543 C 758.015 473.763 758.535 472.68 758.535 471.293 C 758.535 470.373 758.348 469.62 757.975 469.033 C 757.608 468.446 756.992 467.903 756.125 467.403 C 755.265 466.91 753.952 466.35 752.185 465.723 C 749.718 464.836 747.955 463.79 746.895 462.583 C 745.842 461.376 745.315 459.8 745.315 457.853 C 745.315 455.806 746.082 454.18 747.615 452.973 C 749.148 451.766 751.178 451.163 753.705 451.163 C 756.345 451.163 758.772 451.646 760.985 452.613 L 760.015 455.293 C 757.828 454.373 755.702 453.913 753.635 453.913 C 752.002 453.913 750.725 454.263 749.805 454.963 C 748.892 455.67 748.435 456.643 748.435 457.883 C 748.435 458.803 748.602 459.556 748.935 460.143 C 749.275 460.73 749.848 461.27 750.655 461.763 C 751.455 462.25 752.685 462.79 754.345 463.383 C 757.125 464.376 759.038 465.44 760.085 466.573 C 761.132 467.713 761.655 469.19 761.655 471.003 ZM 790.088 464.763 C 790.088 469.003 789.015 472.34 786.868 474.773 C 784.722 477.2 781.738 478.413 777.918 478.413 C 774.012 478.413 770.998 477.22 768.878 474.833 C 766.758 472.446 765.698 469.076 765.698 464.723 C 765.698 460.41 766.762 457.063 768.888 454.683 C 771.015 452.31 774.038 451.123 777.958 451.123 C 781.765 451.123 784.738 452.333 786.878 454.753 C 789.018 457.166 790.088 460.503 790.088 464.763 Z M 768.958 464.763 C 768.958 468.35 769.725 471.073 771.258 472.933 C 772.785 474.786 775.005 475.713 777.918 475.713 C 780.858 475.713 783.078 474.79 784.578 472.943 C 786.072 471.09 786.818 468.363 786.818 464.763 C 786.818 461.196 786.072 458.49 784.578 456.643 C 783.085 454.803 780.878 453.883 777.958 453.883 C 775.018 453.883 772.785 454.81 771.258 456.663 C 769.725 458.516 768.958 461.216 768.958 464.763 ZM 810.213 478.053 L 807.733 478.053 L 798.733 454.553 L 798.593 454.553 C 798.76 456.413 798.843 458.623 798.843 461.183 L 798.843 478.053 L 796.003 478.053 L 796.003 451.543 L 800.643 451.543 L 809.033 473.413 L 809.183 473.413 L 817.653 451.543 L 822.253 451.543 L 822.253 478.053 L 819.173 478.053 L 819.173 460.973 C 819.173 459.013 819.26 456.883 819.433 454.583 L 819.283 454.583 L 810.213 478.053 ZM 844.314 475.293 L 844.314 478.053 L 829.534 478.053 L 829.534 451.543 L 844.314 451.543 L 844.314 454.273 L 832.614 454.273 L 832.614 462.823 L 843.604 462.823 L 843.604 465.543 L 832.614 465.543 L 832.614 475.293 L 844.314 475.293 ZM 867.997 454.273 L 867.997 478.053 L 864.907 478.053 L 864.907 454.273 L 856.517 454.273 L 856.517 451.543 L 876.387 451.543 L 876.387 454.273 L 867.997 454.273 ZM 888.993 467.023 L 883.463 467.023 L 883.463 478.053 L 880.383 478.053 L 880.383 451.543 L 887.653 451.543 C 890.907 451.543 893.31 452.163 894.863 453.403 C 896.417 454.65 897.193 456.526 897.193 459.033 C 897.193 462.54 895.413 464.91 891.853 466.143 L 899.053 478.053 L 895.413 478.053 L 888.993 467.023 Z M 883.463 454.243 L 883.463 464.383 L 887.683 464.383 C 889.863 464.383 891.46 463.95 892.473 463.083 C 893.487 462.216 893.993 460.92 893.993 459.193 C 893.993 457.44 893.477 456.176 892.443 455.403 C 891.41 454.63 889.753 454.243 887.473 454.243 L 883.463 454.243 ZM 918.122 475.293 L 918.122 478.053 L 903.342 478.053 L 903.342 451.543 L 918.122 451.543 L 918.122 454.273 L 906.422 454.273 L 906.422 462.823 L 917.412 462.823 L 917.412 465.543 L 906.422 465.543 L 906.422 475.293 L 918.122 475.293 ZM 938.777 475.293 L 938.777 478.053 L 923.997 478.053 L 923.997 451.543 L 938.777 451.543 L 938.777 454.273 L 927.077 454.273 L 927.077 462.823 L 938.067 462.823 L 938.067 465.543 L 927.077 465.543 L 927.077 475.293 L 938.777 475.293 Z" transform="matrix(1, 0, 0, 1.0500620603561401, -615.921875, -472.1568603515625)" style="fill: rgb(69, 69, 70); line-height: 495.209px; white-space: pre;"/>
</svg>
