
<svg width="400" xmlns="http://www.w3.org/2000/svg" height="400" viewBox="50 90 573 573">
<path d="M 234 323 c 5 -6 6 -40 2 -58 c -3 -16 -4 -16 -10 -10 c -14 14 -38 14 -52 0 c -15 -18 -12 -41 6 -55 c 3 -3 5 -5 5 -6 c -1 -4 -22 -8 -34 -7 c -42 4 -57.6 40 -66.2 77 c -3 17 -1 53 4 59 h 145.2 z" fill="#a5a5a5" ></path>
    <path d="M 565 324 c 4 -5 5 -34 4 -50 c -2 -14 -6 -24 -8 -24 c -1 0 -3 2 -6 5 c -17 17 -47 13 -58 -9 c -7 -16 -4 -31 8 -43 c 4 -4 7 -8 7 -9 c 0 0 -4 -2 -8 -3 c -51 -17 -105 20 -115 80 c -3 15 0 43 3 53 z" fill="#a5a5a5" />
    <path d="M 372 647 c 52 -6 98 -28 138 -62 c 28 -25 46 -56 51 -87 c 4 -20 1 -57 -5 -70 l -423 -1 c -2 56 39 118 74 157 c 31 34 72 54 116 63 c 11 2 38 2 49 0 z" fill="#454546" />
    <path d="M 504 590 s -46 40 -105 53 c -66 15 -114 -7 -114 -7 s 14 -76 93 -95 c 76 -18 126 49 126 49 z" fill="#a5a5a5" />
</svg>
